<?xml version="1.0" standalone="no"?>
<!DOCTYPE svg PUBLIC "-//W3C//DTD SVG 20010904//EN"
 "http://www.w3.org/TR/2001/REC-SVG-20010904/DTD/svg10.dtd">
<svg version="1.0" xmlns="http://www.w3.org/2000/svg"
 width="300.000000pt" height="300.000000pt" viewBox="0 0 300.000000 300.000000"
 preserveAspectRatio="xMidYMid meet">
<metadata>
Created by potrace 1.10, written by Peter Selinger 2001-2011
</metadata>
<g transform="translate(0.000000,300.000000) scale(0.100000,-0.100000)"
fill="#000000" stroke="none">
<path d="M1527 1973 c-17 -17 -2 -23 56 -23 l62 0 -3 -165 -3 -165 71 0 71 0
-3 165 -3 165 100 0 c109 0 136 -9 169 -53 28 -38 36 -199 13 -247 l-15 -30
53 0 c49 0 56 3 77 33 19 27 23 45 23 108 0 67 -3 80 -28 112 -33 43 -100 80
-175 96 -56 12 -454 16 -465 4z m201 -175 c-3 -110 -6 -133 -18 -133 -12 0
-15 23 -18 133 -2 127 -2 132 18 132 20 0 20 -5 18 -132z m417 32 c28 -54 11
-160 -26 -160 -5 0 -9 42 -9 95 0 100 9 116 35 65z"/>
<path d="M630 1960 c0 -6 27 -10 60 -10 l60 0 0 -165 0 -165 70 0 71 0 -3 165
-3 165 63 0 c35 0 62 4 62 10 0 6 -70 10 -190 10 -120 0 -190 -4 -190 -10z
m208 -160 c3 -127 -4 -154 -33 -130 -19 16 -22 229 -3 248 26 26 33 3 36 -118z"/>
<path d="M1200 1960 c0 -6 27 -10 60 -10 l60 0 0 -165 c0 -125 3 -165 13 -165
9 0 11 38 8 165 l-3 165 66 0 c37 0 66 4 66 10 0 6 -52 10 -135 10 -83 0 -135
-4 -135 -10z"/>
<path d="M932 1513 c2 -31 7 -39 27 -41 13 -2 28 2 32 10 12 18 11 68 -1 68
-5 0 -10 -13 -10 -30 0 -20 -5 -30 -15 -30 -10 0 -15 10 -15 30 0 17 -5 30
-11 30 -6 0 -9 -16 -7 -37z"/>
<path d="M1050 1510 c0 -22 5 -40 10 -40 6 0 10 10 10 22 l0 22 16 -22 c23
-33 34 -27 34 18 0 22 -4 40 -10 40 -5 0 -10 -10 -10 -22 l-1 -23 -18 23 c-26
31 -31 28 -31 -18z"/>
<path d="M1181 1536 c-7 -8 -11 -25 -9 -38 2 -18 10 -24 36 -26 27 -3 32 0 32
17 0 12 -4 21 -10 21 -5 0 -10 -4 -10 -10 0 -5 -7 -10 -16 -10 -9 0 -14 7 -12
18 2 10 12 17 26 16 12 0 21 4 19 10 -6 17 -42 18 -56 2z"/>
<path d="M1300 1510 c-16 -32 -18 -40 -6 -40 8 0 16 6 19 13 3 10 9 10 26 0
30 -19 31 -17 14 27 -9 22 -20 40 -24 40 -5 0 -18 -18 -29 -40z"/>
<path d="M1480 1510 c0 -39 1 -40 35 -40 34 0 35 2 33 33 -2 36 -13 47 -45 47
-20 0 -23 -5 -23 -40z"/>
<path d="M1602 1513 c3 -35 6 -38 33 -38 27 0 30 3 33 38 2 21 -1 37 -7 37 -6
0 -11 -13 -11 -30 0 -20 -5 -30 -15 -30 -10 0 -15 10 -15 30 0 17 -5 30 -11
30 -6 0 -9 -16 -7 -37z"/>
<path d="M1720 1510 c0 -22 5 -40 10 -40 6 0 10 10 10 23 l1 22 18 -22 c11
-13 23 -23 28 -23 13 0 7 74 -7 78 -9 3 -11 -2 -7 -17 7 -27 -9 -28 -23 -1
-17 32 -30 23 -30 -20z"/>
<path d="M1856 1534 c-19 -19 -20 -36 -4 -52 17 -17 58 -15 65 3 8 24 -5 31
-20 11 -12 -16 -14 -16 -26 -2 -16 19 -4 39 20 33 23 -6 35 9 13 17 -24 9 -31
8 -48 -10z"/>
<path d="M1976 1514 c-18 -40 -15 -54 9 -34 12 10 18 10 30 0 9 -7 18 -11 21
-8 6 7 -27 78 -36 78 -3 0 -14 -16 -24 -36z"/>
<path d="M1320 1307 c0 -50 -6 -102 -15 -128 -32 -88 -107 -138 -211 -139 -87
0 -140 30 -176 99 -25 47 -28 64 -28 147 l0 94 -71 0 -71 0 4 -92 c7 -142 56
-215 173 -255 78 -27 226 -24 288 6 56 27 104 81 116 131 16 59 18 213 4 217
-10 4 -13 -17 -13 -80z m-476 17 c3 -9 6 -41 6 -72 1 -31 7 -75 15 -97 8 -21
12 -41 10 -44 -7 -7 -46 31 -60 59 -17 33 -29 113 -21 145 7 28 40 34 50 9z"/>
<path d="M1642 1230 l3 -150 -63 0 c-47 0 -63 -3 -59 -12 6 -21 465 -16 537 5
113 34 170 112 170 235 l0 72 -67 0 -68 0 0 -93 c-1 -168 -43 -207 -223 -207
l-97 0 3 150 3 150 -71 0 -71 0 3 -150z m88 -10 c0 -113 -1 -120 -20 -120 -19
0 -20 7 -20 120 0 113 1 120 20 120 19 0 20 -7 20 -120z m458 86 c6 -46 -6
-89 -33 -121 l-25 -30 6 85 c4 47 9 89 11 93 11 18 38 0 41 -27z"/>
</g>
</svg>
